<?xml version="1.0" encoding="UTF-8"?>
<svg id="Layer_1" xmlns="http://www.w3.org/2000/svg" version="1.1" viewBox="0 0 79.2 79.2">
  <!-- Generator: Adobe Illustrator 29.4.0, SVG Export Plug-In . SVG Version: 2.1.0 Build 152)  -->
  <defs>
    <style>
      .st0 {
        fill: #e6f0f7;
      }

      .st1 {
        fill: #698ce9;
      }

      .st2 {
        fill: #fff;
      }
    </style>
  </defs>
  <path class="st2" d="M-807.16-187.93v-116.5l-1.5-1.5h-293l-1.5,1.5V104.57l1.5,1.5h237l57.3-57.7.23-175.77,20.98-21.52V58.57l-63.98,64.02-11.61,5.39-237.9.07c-11.87-.53-22.65-8.33-24.52-20.48l-.04-414.04c1.14-12.83,13.13-21.48,25.49-21.51h287.08c12.06.56,22.81,7.39,25.38,19.63l.14,97.97c.13,1.21-.44,2.02-1,3-3.03,5.27-15.66,14.14-20.05,19.45Z"/>
  <path class="st2" d="M-726.45-252.71c13.02-3,18.8,9.26,10.82,18.81l-166.51,166.49c-5.78,4.56-10.2,6.72-16.94,1.91l-43.91-55.08c-6.41-10.12,5.6-21.06,15.34-14.34l37,44.98,160.48-160.5c1.06-1.03,2.25-1.92,3.73-2.26Z"/>
  <rect class="st2" x="-1082.16" y="-29.93" width="254" height="19"/>
  <rect class="st2" x="-1082.16" y="33.07" width="254" height="19"/>
  <polygon class="st2" points="-828.16 -241.93 -828.16 -222.93 -945.16 -222.93 -945.16 -240.43 -943.66 -241.93 -828.16 -241.93"/>
  <g>
    <path class="st0" d="M51.2,79.2h-23.2c-15.4,0-28-12.6-28-28v-23.2C0,12.6,12.6,0,28,0h23.2c15.4,0,28,12.6,28,28v23.2c0,15.4-12.6,28-28,28Z"/>
    <g>
      <g>
        <path class="st1" d="M49.56,38.35h-2.08v-8.97c0-.18-.31-.55-.52-.57l-15.93-.05c-.32,0-.58.2-.69.49v19.04c.06.22.38.49.59.49h8.53v2.08h-8.78c-1.08,0-2.41-1.36-2.45-2.45v-19.24c.14-1.34,1.26-2.39,2.59-2.5h16.17c1.15.03,2.55,1.34,2.55,2.5v9.17Z"/>
        <path class="st1" d="M39.64,51.03h-8.95c-1.16,0-2.58-1.42-2.62-2.62v-19.24c.15-1.44,1.31-2.55,2.75-2.67h16.18c1.27.04,2.72,1.46,2.72,2.67v9.35h-2.43v-9.15c0-.1-.25-.38-.36-.4l-15.91-.05c-.23,0-.42.13-.52.35v18.98c.05.14.29.34.42.34h8.7v2.43ZM30.84,26.85c-1.26.1-2.29,1.09-2.42,2.34v19.22c.04,1,1.31,2.27,2.28,2.27h8.6v-1.73h-8.35c-.32,0-.69-.35-.76-.62v-.04s0-19.1,0-19.1c.14-.37.46-.6.85-.61l15.93.05c.3.04.69.47.69.75v8.8h1.73v-9c0-1.03-1.29-2.29-2.38-2.32h-16.17Z"/>
      </g>
      <g>
        <path class="st1" d="M34.42,34.88l2.26-2.61c.99-.59,2.06.46,1.44,1.44-1,.98-1.9,2.34-2.91,3.27-.39.36-1.13.52-1.58.2-.1-.07-.05-.15-.12-.22-.44-.5-1.54-1.3-1.64-1.93-.15-.91.84-1.48,1.6-1,.3.19.55.62.83.8.04.03.05.07.12.05Z"/>
        <path class="st1" d="M34.23,37.53c-.25,0-.5-.06-.7-.21-.11-.08-.13-.17-.14-.23-.13-.16-.31-.33-.5-.51-.52-.48-1.1-1.02-1.18-1.52-.08-.47.11-.91.5-1.17.41-.27.94-.27,1.37,0,.18.11.33.29.48.46.11.13.22.25.33.33l2.22-2.55c.6-.36,1.22-.17,1.55.18.4.41.45,1,.12,1.51-.5.49-.96,1.05-1.4,1.59-.49.6-1,1.22-1.54,1.72-.27.25-.7.42-1.1.42ZM32.89,34.04c-.17,0-.34.05-.49.15-.27.18-.4.49-.35.82.06.38.62.91,1.08,1.33.2.19.39.36.52.51.06.07.07.13.08.17.38.29,1.03.15,1.37-.16.52-.48,1.02-1.09,1.51-1.68.45-.55.91-1.11,1.4-1.58.25-.41.12-.82-.11-1.05-.22-.23-.64-.39-1.1-.13l-2.27,2.63h-.05c-.15.05-.23-.02-.26-.05-.15-.11-.29-.26-.42-.41-.13-.15-.27-.31-.41-.39-.15-.1-.33-.15-.5-.15Z"/>
      </g>
      <g>
        <path class="st1" d="M33.55,44.46c-.07-.08-.16-.29-.26-.4-.49-.52-1.46-1.15-1.44-1.93.03-.67.73-1.05,1.34-.89.4.1.83.76,1.16,1.01.7-.71,1.29-1.56,1.98-2.27.42-.43.75-.72,1.38-.44.71.32.76,1.1.3,1.68-.73.91-1.8,2.09-2.62,2.92-.42.43-.73.63-1.37.53-.1-.02-.4-.13-.47-.2Z"/>
        <path class="st1" d="M34.32,44.86c-.1,0-.21,0-.33-.03-.1-.02-.46-.13-.57-.26h0s-.08-.11-.12-.19c-.04-.08-.09-.16-.14-.21-.11-.12-.25-.25-.4-.38-.52-.47-1.11-1-1.08-1.67.01-.33.17-.63.45-.84.31-.23.73-.31,1.11-.22.31.08.59.38.86.68.09.09.17.19.25.26.31-.33.61-.69.9-1.05.31-.37.62-.76.96-1.1.45-.47.85-.8,1.58-.48.35.16.59.43.67.77.09.39-.02.81-.31,1.17-.7.87-1.76,2.05-2.63,2.93-.39.39-.7.61-1.19.61ZM33.68,44.34c.05.04.29.13.36.15.56.08.81-.07,1.22-.48.87-.88,1.92-2.04,2.61-2.9.21-.27.3-.59.24-.87-.06-.24-.22-.42-.48-.54-.51-.23-.75-.05-1.18.4-.32.34-.64.72-.94,1.08-.33.4-.67.82-1.04,1.19l-.11.11-.12-.09c-.13-.1-.27-.25-.41-.41-.22-.25-.48-.52-.69-.58-.28-.07-.59-.01-.81.16-.19.14-.3.34-.31.57-.02.51.5.98.96,1.4.16.14.3.28.42.4.07.08.13.18.19.28.03.05.06.1.08.13Z"/>
      </g>
      <g>
        <path class="st1" d="M45.14,34.01c.69.69.19,1.75-.75,1.86s-3.02.1-3.94,0c-1.37-.14-1.45-1.87-.15-2.17,1.33.09,2.84-.13,4.15,0,.24.02.53.14.7.31Z"/>
        <path class="st1" d="M42.43,36.12c-.76,0-1.53-.02-2-.07-.81-.08-1.2-.66-1.23-1.19-.03-.53.29-1.14,1.06-1.32h.02s.03,0,.03,0c.61.04,1.28.01,1.93-.01.75-.03,1.52-.06,2.22,0,.3.03.61.17.81.36h0c.34.35.46.82.3,1.26-.17.48-.63.83-1.16.89-.46.05-1.21.07-1.98.07ZM40.3,33.88c-.56.14-.79.57-.77.95.02.36.27.8.92.86.93.1,3.01.1,3.91,0,.4-.04.74-.3.87-.66.11-.32.03-.65-.22-.9-.14-.14-.38-.24-.59-.26-.68-.07-1.44-.04-2.18,0-.65.03-1.32.05-1.94.01Z"/>
      </g>
    </g>
    <g>
      <path class="st1" d="M41.25,48.27c.13-1.01,1.02-2.18,1.93-2.62.16-.08.87-.33,1.01-.32.28.03.65.71,1.41.67.62-.03.75-.5,1.13-.62.48-.17,1.76.65,2.11,1.03.43.47.87,1.49.87,2.11v2.24l-.12.12h-8.2l-.12-.12c.07-.78-.1-1.72,0-2.48ZM42.95,49.31h5.05l.11-.14c.03-.54-.06-1.21-.4-1.64-.58-.73-.77-.27-1.41-.08-.9.26-1.64.08-2.43-.36-.79.35-1.17,1.24-1.04,2.08l.11.14Z"/>
      <path class="st1" d="M49.59,50.93h-8.24l-.16-.16v-.02c.04-.37.02-.78,0-1.18-.02-.44-.04-.9,0-1.31h0c.13-1.01,1.01-2.2,1.96-2.66.13-.06.83-.32,1.02-.32,0,0,.01,0,.02,0,.11.01.23.11.37.23.24.2.53.44.97.44.02,0,.04,0,.06,0,.37-.02.55-.19.73-.36.12-.11.23-.21.38-.26.05-.02.1-.02.16-.02.58,0,1.68.72,2,1.07.45.49.88,1.54.88,2.15v2.26l-.15.15ZM41.39,50.83h8.16l.1-.09v-2.22c0-.59-.42-1.6-.86-2.08-.34-.37-1.61-1.17-2.05-1.02-.13.05-.24.14-.35.24-.18.17-.39.36-.79.38-.02,0-.04,0-.07,0-.47,0-.79-.27-1.03-.47-.13-.1-.23-.19-.32-.2,0,0,0,0,0,0-.14,0-.79.23-.97.31-.93.45-1.78,1.61-1.9,2.58h0c-.05.4-.03.85,0,1.29.02.39.04.8,0,1.17l.09.09ZM48.02,49.36h-5.1l-.13-.17h0c-.14-.93.29-1.81,1.06-2.15h.02s.02,0,.02,0c.87.48,1.58.59,2.39.36.17-.05.3-.12.42-.17.34-.17.58-.29,1.04.27.45.55.43,1.42.41,1.68v.02s-.14.17-.14.17ZM42.97,49.26h5l.09-.11c.01-.26.02-1.08-.39-1.59-.4-.5-.58-.41-.92-.25-.12.06-.26.13-.44.18-.83.24-1.57.13-2.45-.35-.71.33-1.11,1.15-.99,2.01l.09.11Z"/>
    </g>
    <g>
      <path class="st1" d="M44.96,39.64c3.87-.57,4.38,5.07.8,5.43-3.58.37-4.04-4.96-.8-5.43ZM45.2,41.21c-1.38.25-1.06,2.43.38,2.3,1.53-.14,1.31-2.6-.38-2.3Z"/>
      <path class="st1" d="M45.4,45.14c-1.62,0-2.5-1.19-2.65-2.44-.17-1.36.53-2.87,2.2-3.11h0c1.12-.16,2.07.18,2.68.97.63.82.77,2.03.36,3-.39.9-1.18,1.46-2.22,1.57-.12.01-.24.02-.36.02ZM45.48,39.65c-.17,0-.34.01-.52.04-1.6.23-2.28,1.69-2.12,3,.16,1.29,1.12,2.52,2.9,2.34,1.01-.1,1.77-.64,2.14-1.51.41-.94.27-2.1-.34-2.9-.49-.63-1.21-.97-2.06-.97ZM45.46,43.56c-.71,0-1.1-.54-1.17-1.08-.07-.54.18-1.19.91-1.32h0c.5-.09.93.05,1.2.39.29.36.35.89.17,1.32-.17.4-.51.64-.97.68-.05,0-.09,0-.13,0ZM45.48,41.24c-.09,0-.18,0-.27.02h0c-.67.12-.9.71-.83,1.21.07.52.48,1.05,1.2.99.42-.04.73-.26.89-.62.17-.4.11-.89-.16-1.22-.2-.25-.49-.38-.83-.38Z"/>
    </g>
  </g>
</svg>